<svg xmlns="http://www.w3.org/2000/svg" viewBox="0 0 39.7 23.35"><g id="レイヤー_2" data-name="レイヤー 2"><g id="レイヤー_1-2" data-name="レイヤー 1"><path d="M31.05,7.05H23.71l.23-.3L15.41.14A.68.68,0,0,0,15,0H11.22a.71.71,0,0,0-.62.38.69.69,0,0,0,.08.72l3.66,4.75L15.42,5,12.61,1.37h2.15L22.1,7.05H11.17L4.31,1A.71.71,0,0,0,3.85.82H.68a.66.66,0,0,0-.58.33.69.69,0,0,0,0,.68L2.91,7.05H.68A.69.69,0,0,0,0,7.74v3.17a.67.67,0,0,0,.44.63c.35.14,8.63,3.32,11.18,3.32h4.75l-5.69,7.39a.68.68,0,0,0-.08.71.7.7,0,0,0,.62.39H15a.63.63,0,0,0,.41-.15l10.76-8.34H35.6c1.66,0,4.1-1,4.1-3C39.7,9.61,35.09,7.05,31.05,7.05Zm4.55,6.44H25.93a.63.63,0,0,0-.41.15L14.76,22H12.61l5.69-7.39a.68.68,0,0,0,0-.85.72.72,0,0,0-.56-.25H11.62c-1.8,0-7.64-2.07-10.25-3.05v-2H4.06a.68.68,0,0,0,.58-.33.69.69,0,0,0,0-.68L1.83,2.18H3.59l6.86,6.07a.71.71,0,0,0,.46.17H31.05c3.76,0,7.29,2.36,7.29,3.43S36.74,13.49,35.6,13.49Z"/></g></g></svg>