<svg xmlns="http://www.w3.org/2000/svg" viewBox="0 0 41.36 19.99"><g id="レイヤー_2" data-name="レイヤー 2"><g id="レイヤー_1-2" data-name="レイヤー 1"><path d="M37.24,7.23c-1.55-.38-4.9-1-5.78-1.14C30.45,5.1,25,0,20.2,0c-.82,0-2.27.06-3.68.11s-2.56.1-3.21.1C9.23.21,6.56,3.42,5.28,5c-.17.21-.36.43-.48.56-1,0-3.19.1-3.29.1l-.42,0L.91,6A11.68,11.68,0,0,0,0,10.55c0,2.51,0,6.31,3.4,6.31H5.32a3.83,3.83,0,0,0,7.56-.14v.14H27.17a3.84,3.84,0,0,0,7.55,0c.68,0,1.88-.07,3.31-.07,2.53,0,2.73-1.14,3-2.86.07-.4.15-.86.27-1.38l0-.08v-.08A5.72,5.72,0,0,0,37.24,7.23ZM9.09,18.62a2.48,2.48,0,1,1,2.47-2.47A2.48,2.48,0,0,1,9.09,18.62Zm21.85,0a2.48,2.48,0,1,1,2.48-2.47A2.48,2.48,0,0,1,30.94,18.62Zm8.78-5c-.29,1.63-.3,1.73-1.69,1.73s-2.61,0-3.31.08a3.83,3.83,0,0,0-7.55,0H12.88v.09a3.83,3.83,0,0,0-7.57-.09H3.4c-1.88,0-2-2.14-2-4.94A10.68,10.68,0,0,1,2,7c.79,0,2.43-.09,3-.09s.72-.32,1.32-1c1.15-1.39,3.54-4.26,7-4.26.68,0,1.94-.05,3.27-.1s2.83-.11,3.62-.11c3.3,0,7.15,2.91,9.12,4.62h-9V3.55H18.91V6h-4.7c-2.61,0-3.05-1.83-3.09-2L9.77,4.2a4.21,4.21,0,0,0,4.44,3.16H30.8l.21,0s4.19.73,5.9,1.16A4.4,4.4,0,0,1,40,12.28C39.88,12.8,39.8,13.25,39.72,13.65Z"/></g></g></svg>