<svg xmlns="http://www.w3.org/2000/svg" viewBox="0 0 33.27 19.76"><g id="レイヤー_2" data-name="レイヤー 2"><g id="レイヤー_1-2" data-name="レイヤー 1"><rect y="18.4" width="31.99" height="1.37"/><path d="M16.42,0H0V1.37H14.16C15,3,18.22,8.79,23.69,9.19c.95.07,1.78.1,2.53.1a13.63,13.63,0,0,0,4.62-.6,5.81,5.81,0,0,1,1.06,3.18c0,1.76-2.32,3-4.4,3H0v1.36H27.5c2.78,0,5.77-1.66,5.77-4.34C33.27,5.43,22.92,0,16.42,0Zm7.37,7.83c-4.18-.31-7-4.53-8.08-6.46h.71A20.84,20.84,0,0,1,30,7.54,19.25,19.25,0,0,1,23.79,7.83Z"/><rect x="24.79" y="11.08" width="2.72" height="1.37"/><path d="M7.8,8.6H12A1.15,1.15,0,0,0,13,8c.34-.61.37-1.75-2-5.58l-1.16.73c1.67,2.67,1.94,3.72,2,4.07h-4Z"/><path d="M5.22,8c.34-.61.37-1.75-2-5.58l-1.16.73C3.71,5.83,4,6.88,4,7.23H0V8.6H4.16A1.14,1.14,0,0,0,5.22,8Z"/></g></g></svg>