<svg xmlns="http://www.w3.org/2000/svg" width="26.685" height="33.876" viewBox="0 0 26.685 33.876"><g transform="translate(1.047 0.75)"><g transform="translate(0 0)"><line x2="5.516" y2="7.661" transform="translate(19.075 24.418)" stroke-width="1.5" stroke="#000" stroke-linecap="round" stroke-linejoin="round" fill="none"/><line x1="5.516" y2="7.661" transform="translate(0 24.418)" stroke-width="1.5" stroke="#000" stroke-linecap="round" stroke-linejoin="round" fill="none"/><path d="M-51.17,92.6H-68.08" transform="translate(71.92 -65.855)" fill="none" stroke="#000" stroke-linecap="round" stroke-linejoin="round" stroke-width="1.5"/><line x1="21.951" transform="translate(1.342 30.215)" stroke-width="1.5" stroke="#000" stroke-linecap="round" stroke-linejoin="round" fill="none"/><path d="M-56.4,33.778a3.889,3.889,0,0,0-1.661-.372H-65.4a3.89,3.89,0,0,0-1.661.372l-3.523,1.663a2.406,2.406,0,0,0-1.379,2.176v17.3a2.406,2.406,0,0,0,2.406,2.407h15.651A2.407,2.407,0,0,0-51.5,54.917v-17.3a2.407,2.407,0,0,0-1.38-2.176Z" transform="translate(74.049 -33.406)" fill="none" stroke="#000" stroke-linecap="round" stroke-linejoin="round" stroke-width="1.5"/><line x2="20.464" transform="translate(2.085 5.564)" stroke-width="1.5" stroke="#000" stroke-linecap="round" stroke-linejoin="round" fill="none"/><line x2="20.464" transform="translate(2.085 12.854)" stroke-width="1.5" stroke="#000" stroke-linecap="round" stroke-linejoin="round" fill="none"/><rect width="5.287" height="2.729" rx="1.364" transform="translate(15.089 17.736)" stroke-width="1.5" stroke="#000" stroke-linecap="round" stroke-linejoin="round" fill="none"/><rect width="5.287" height="2.729" rx="1.364" transform="translate(9.546 20.464) rotate(180)" stroke-width="1.5" stroke="#000" stroke-linecap="round" stroke-linejoin="round" fill="none"/></g></g></svg>